<svg width="72" height="109" viewBox="0 0 72 109" fill="none" xmlns="http://www.w3.org/2000/svg">
<g clip-path="url(#clip0_220_767)">
<path d="M35.9661 54.5206C35.9661 44.5158 44.0084 36.3636 53.9695 36.3636C63.8898 36.3636 71.973 44.4746 71.973 54.5206C71.973 64.5255 63.9306 72.6776 53.9695 72.6776C44.0492 72.6776 35.9661 64.5255 35.9661 54.5206Z" fill="#1ABCFE"/>
<path d="M0 90.7933C0 80.7885 8.04236 72.6364 18.0035 72.6364H36.0069V90.7933C36.0069 100.798 27.9645 108.95 18.0035 108.95C8.04236 108.95 0 100.839 0 90.7933Z" fill="#0ACF83"/>
<path d="M35.9661 0.0908549V36.3636H53.9695C63.8898 36.3636 71.973 28.2527 71.973 18.2066C71.973 8.20179 63.9306 0.0496826 53.9695 0.0496826H35.9661V0.0908549Z" fill="#FF7262"/>
<path d="M0 18.2478C0 28.2527 8.04236 36.4048 18.0035 36.4048H36.0069V0.0908813H18.0035C8.04236 0.0908813 0 8.20182 0 18.2478Z" fill="#F24E1E"/>
<path d="M0 54.5206C0 64.5255 8.04236 72.6776 18.0035 72.6776H36.0069V36.3636H18.0035C8.04236 36.3636 0 44.5158 0 54.5206Z" fill="#A259FF"/>
</g>
<defs>
<clipPath id="clip0_220_767">
<rect width="72" height="109" fill="white"/>
</clipPath>
</defs>
</svg>
