<svg width="38" height="38" viewBox="0 0 38 38" fill="none" xmlns="http://www.w3.org/2000/svg">
<path d="M19.1998 3.16666C17.1899 3.16666 15.1996 3.57621 13.3427 4.3719C11.4857 5.1676 9.79843 6.33388 8.37718 7.80414C5.50683 10.7735 3.89429 14.8007 3.89429 19C3.89429 25.9983 8.28698 31.9358 14.3633 34.0417C15.1286 34.1683 15.3735 33.6775 15.3735 33.25C15.3735 32.8858 15.3735 31.8883 15.3735 30.5742C11.1338 31.5242 10.2308 28.4525 10.2308 28.4525C9.52673 26.6158 8.53187 26.125 8.53187 26.125C7.13907 25.1433 8.63901 25.175 8.63901 25.175C10.1696 25.2858 10.9808 26.8058 10.9808 26.8058C12.3123 29.2125 14.5623 28.5 15.4347 28.12C15.5724 27.0908 15.9704 26.3942 16.3989 25.9983C13.0011 25.6025 9.4349 24.2408 9.4349 18.2083C9.4349 16.4508 10.0165 15.0417 11.0114 13.9175C10.8583 13.5217 10.3226 11.875 11.1644 9.7375C11.1644 9.7375 12.4501 9.31 15.3735 11.3525C16.5826 11.0042 17.8989 10.83 19.1998 10.83C20.5008 10.83 21.8171 11.0042 23.0262 11.3525C25.9496 9.31 27.2353 9.7375 27.2353 9.7375C28.0771 11.875 27.5414 13.5217 27.3883 13.9175C28.3832 15.0417 28.9648 16.4508 28.9648 18.2083C28.9648 24.2567 25.3833 25.5867 21.9701 25.9825C22.5211 26.4733 23.0262 27.4392 23.0262 28.9117C23.0262 31.0333 23.0262 32.7433 23.0262 33.25C23.0262 33.6775 23.2711 34.1842 24.0517 34.0417C30.128 31.92 34.5054 25.9983 34.5054 19C34.5054 16.9207 34.1095 14.8618 33.3403 12.9408C32.5712 11.0199 31.4438 9.2744 30.0225 7.80414C28.6013 6.33388 26.914 5.1676 25.057 4.3719C23.2001 3.57621 21.2098 3.16666 19.1998 3.16666Z" fill="white"/>
</svg>
