<svg width="113" height="113" viewBox="0 0 113 113" fill="none" xmlns="http://www.w3.org/2000/svg">
<g clip-path="url(#clip0_220_754)">
<path d="M113 0H56.7353L3.00854 56.5H56.401L56.6506 56.2458L113 0Z" fill="url(#paint0_linear_220_754)"/>
<path d="M56.6507 56.2457L56.4011 56.5H56.9049L56.6507 56.2457Z" fill="url(#paint1_linear_220_754)"/>
<path d="M56.7354 0H0V59.664V56.5H3.00862L56.7354 0Z" fill="url(#paint2_linear_220_754)"/>
<path d="M56.4011 56.5H3.00862L0 59.664V113L56.4011 56.5Z" fill="url(#paint3_linear_220_754)"/>
<path d="M56.9049 56.5H56.4011L0 113H113L56.9049 56.5Z" fill="url(#paint4_linear_220_754)"/>
<path d="M3.00863 56.5H0V59.664L3.00863 56.5Z" fill="url(#paint5_linear_220_754)"/>
</g>
<defs>
<linearGradient id="paint0_linear_220_754" x1="-20.1683" y1="103.266" x2="84.9841" y2="-1.88598" gradientUnits="userSpaceOnUse">
<stop stop-color="#C757BC"/>
<stop offset="0.108" stop-color="#C757BC"/>
<stop offset="0.173" stop-color="#CD5CA9"/>
<stop offset="0.492" stop-color="#E8744F"/>
<stop offset="0.716" stop-color="#F88316"/>
<stop offset="0.823" stop-color="#FF8900"/>
<stop offset="1" stop-color="#FF8900"/>
</linearGradient>
<linearGradient id="paint1_linear_220_754" x1="36.5034" y1="133.355" x2="87.7566" y2="82.1015" gradientUnits="userSpaceOnUse">
<stop stop-color="#00AFFF"/>
<stop offset="0.296" stop-color="#00AFFF"/>
<stop offset="0.694" stop-color="#5282FF"/>
<stop offset="1" stop-color="#945DFF"/>
</linearGradient>
<linearGradient id="paint2_linear_220_754" x1="-1.19176" y1="31.2289" x2="34.763" y2="-4.72674" gradientUnits="userSpaceOnUse">
<stop stop-color="#00AFFF"/>
<stop offset="0.296" stop-color="#00AFFF"/>
<stop offset="0.694" stop-color="#5282FF"/>
<stop offset="1" stop-color="#945DFF"/>
</linearGradient>
<linearGradient id="paint3_linear_220_754" x1="-19.5373" y1="103.897" x2="85.6151" y2="-1.25506" gradientUnits="userSpaceOnUse">
<stop stop-color="#AD4CA4"/>
<stop offset="0.108" stop-color="#AD4CA4"/>
<stop offset="0.173" stop-color="#B25093"/>
<stop offset="0.492" stop-color="#CA6545"/>
<stop offset="0.716" stop-color="#D87213"/>
<stop offset="0.823" stop-color="#DE7700"/>
<stop offset="1" stop-color="#DE7700"/>
</linearGradient>
<linearGradient id="paint4_linear_220_754" x1="36.5034" y1="133.355" x2="87.7566" y2="82.1015" gradientUnits="userSpaceOnUse">
<stop stop-color="#0098DE"/>
<stop offset="0.296" stop-color="#0098DE"/>
<stop offset="0.694" stop-color="#4771DE"/>
<stop offset="1" stop-color="#8151DE"/>
</linearGradient>
<linearGradient id="paint5_linear_220_754" x1="12.9388" y1="45.3591" x2="48.8935" y2="9.40346" gradientUnits="userSpaceOnUse">
<stop stop-color="#0098DE"/>
<stop offset="0.296" stop-color="#0098DE"/>
<stop offset="0.694" stop-color="#4771DE"/>
<stop offset="1" stop-color="#8151DE"/>
</linearGradient>
<clipPath id="clip0_220_754">
<rect width="113" height="113" fill="white"/>
</clipPath>
</defs>
</svg>
