<svg width="34" height="34" viewBox="0 0 34 34" fill="none" xmlns="http://www.w3.org/2000/svg">
<path d="M26.5527 4.25C27.2791 4.25 27.9758 4.54851 28.4894 5.07986C29.003 5.61122 29.2916 6.33189 29.2916 7.08333V26.9167C29.2916 27.6681 29.003 28.3888 28.4894 28.9201C27.9758 29.4515 27.2791 29.75 26.5527 29.75H7.38049C6.65409 29.75 5.95744 29.4515 5.4438 28.9201C4.93016 28.3888 4.6416 27.6681 4.6416 26.9167V7.08333C4.6416 6.33189 4.93016 5.61122 5.4438 5.07986C5.95744 4.54851 6.65409 4.25 7.38049 4.25H26.5527ZM25.868 26.2083V18.7C25.868 17.4751 25.3976 16.3005 24.5604 15.4343C23.7232 14.5682 22.5876 14.0817 21.4036 14.0817C20.2396 14.0817 18.8838 14.8183 18.2265 15.9233V14.3508H14.4057V26.2083H18.2265V19.2242C18.2265 18.1333 19.0755 17.2408 20.13 17.2408C20.6385 17.2408 21.1262 17.4498 21.4857 17.8217C21.8452 18.1937 22.0472 18.6982 22.0472 19.2242V26.2083H25.868ZM9.95505 12.1267C10.5652 12.1267 11.1504 11.8759 11.5819 11.4296C12.0133 10.9832 12.2557 10.3779 12.2557 9.74667C12.2557 8.42917 11.2286 7.3525 9.95505 7.3525C9.34124 7.3525 8.75257 7.60474 8.31855 8.05374C7.88452 8.50273 7.64068 9.11169 7.64068 9.74667C7.64068 11.0642 8.68146 12.1267 9.95505 12.1267ZM11.8586 26.2083V14.3508H8.06521V26.2083H11.8586Z" fill="white"/>
</svg>
