<svg width="112" height="123" viewBox="0 0 112 123" fill="none" xmlns="http://www.w3.org/2000/svg">
<g clip-path="url(#clip0_220_777)">
<path d="M70.6998 57.4348L46.1805 65.5001L24.825 74.9708L18.8624 76.5594C17.3414 78.0258 15.7595 79.4922 13.9951 80.9587C12.109 82.6084 10.3446 84.0748 9.00603 85.1746C7.48498 86.3966 5.29467 88.5963 4.13867 90.0016C2.43509 92.1401 1.09656 94.4009 0.548983 96.1117C-0.485331 99.2278 0.00141058 102.405 2.0092 105.338C4.50372 109.065 9.55361 112.853 15.3944 115.42C18.3757 116.764 23.4256 118.413 27.1978 119.391C33.4645 120.98 45.6329 122.752 52.3255 122.996C53.6641 123.057 55.4893 123.057 55.5502 122.996C55.6719 122.874 56.767 120.919 57.923 118.414C62.0603 109.982 64.9807 102.038 66.6234 95.3174C67.5969 91.2236 68.327 85.7856 68.8746 79.3089C68.9963 77.4759 69.0571 71.4269 68.9354 69.4106C68.7529 66.05 68.4487 63.3616 68.0228 60.6732C67.9619 60.3066 67.9011 59.94 67.9619 59.94C68.0228 59.8789 68.2662 59.8177 71.3083 58.9623L70.6998 57.4348ZM65.1024 60.7343C65.3457 60.7343 65.8933 66.4778 66.0758 70.0827C66.1367 70.8159 66.0758 71.3658 66.0758 71.3658C65.9542 71.3658 62.9729 69.5939 60.7826 68.2497C58.9573 67.0888 55.4285 64.7058 54.8809 64.2781C54.6984 64.1559 54.6984 64.1559 56.2194 63.606C58.7748 62.6895 64.859 60.7343 65.1024 60.7343ZM52.5689 64.8891C52.7514 64.8891 53.1773 65.1335 54.2116 65.7445C58.0447 68.1275 63.2163 71.0603 65.4674 72.0379C66.1367 72.3434 66.1975 72.2212 64.6765 73.321C61.3302 75.6429 57.0712 77.9036 51.9605 80.1644C51.0479 80.5921 50.3178 80.8976 50.2569 80.8976C50.1961 80.8976 50.3177 80.4088 50.5003 79.8588C51.7171 75.2152 52.4472 70.5104 52.5081 66.7833C52.3864 64.8891 52.3864 64.8891 52.5689 64.8891ZM50.0135 65.8667C50.1352 65.9889 50.0744 70.1438 49.8919 71.3047C49.5876 73.9932 49.0401 76.5594 48.1883 79.4311C48.0058 80.1032 47.8232 80.7143 47.7624 80.7143C47.7015 80.8365 45.1462 78.3313 44.2944 77.3537C42.8342 75.704 41.739 73.9932 40.8872 72.3434C40.4613 71.488 39.7921 69.8383 39.8529 69.8383C40.1571 69.5939 49.9527 65.8056 50.0135 65.8667ZM37.906 70.6326C38.0277 70.6937 38.1494 70.9992 38.2102 71.3047C38.8186 72.9544 40.1571 75.3374 41.3131 76.8038C42.5908 78.4535 44.2336 80.2865 45.5721 81.4475C45.998 81.8141 46.4239 82.1807 46.4847 82.2418C46.6064 82.364 46.6064 82.364 43.6251 83.4638C40.0963 84.808 36.3241 86.1522 31.9435 87.5576C30.9092 87.9242 29.8748 88.2297 28.8405 88.5963C28.658 88.6574 28.7188 88.5352 29.2056 87.802C31.3959 84.3803 34.6814 77.7203 36.5066 72.9544C36.8108 72.1601 37.115 71.3047 37.1759 71.1214C37.2367 70.877 37.3584 70.7548 37.6018 70.6326C37.7235 70.6937 37.8451 70.6326 37.906 70.6326ZM34.1946 72.1601C34.2555 72.2212 33.282 74.1765 32.3694 76.0095C30.5441 79.5533 28.5972 82.975 25.9809 87.191C25.5551 87.9242 25.1292 88.5963 25.0683 88.6574C24.9466 88.7796 24.9466 88.7796 24.6424 88.1686C24.034 86.9465 23.4864 85.2968 23.2431 83.8304C22.9388 82.364 22.9997 79.8588 23.3647 78.2702C23.6081 77.1093 23.6081 77.1093 24.1557 76.8649C26.4068 75.704 34.0729 72.099 34.1946 72.1601ZM66.1367 73.5044V74.2987C66.1367 78.4535 65.7108 84.1359 65.0415 88.2908C64.9198 89.024 64.859 89.635 64.7981 89.635C64.7981 89.635 64.2506 89.5128 63.6422 89.3295C60.8434 88.4741 57.8622 87.191 55.1243 85.6634C53.299 84.6858 50.6828 83.0361 50.8045 82.975C50.8045 82.975 51.5954 82.5473 52.5081 82.0585C56.1586 80.1643 59.6266 78.0869 62.6687 76.0706C63.8247 75.3374 65.5283 74.0543 65.8933 73.7488L66.1367 73.5044ZM20.201 79.0034C20.2618 79.0034 20.2618 79.1256 20.1401 79.7977C20.0793 80.2866 19.9576 81.2031 19.9576 81.8141C19.8359 84.5025 20.2618 86.5188 21.6003 89.2684C21.9654 90.0016 22.2696 90.6737 22.2696 90.6737C22.1479 90.7959 9.85781 94.4009 6.02477 95.4396C4.86877 95.7451 3.8953 96.0506 3.77361 96.0506C3.65193 96.1117 3.65193 96.0506 3.65193 95.7451C4.07782 92.9955 6.14645 89.4517 9.06687 86.3966C11.0138 84.3803 12.5349 83.2194 15.1511 81.6919C17.0372 80.7143 19.8967 79.0645 20.201 79.0034C20.1401 79.0034 20.1401 79.0034 20.201 79.0034ZM49.1009 84.197C49.1009 84.197 49.5877 84.4414 50.0744 84.7469C54.0291 87.0688 59.5657 89.2073 64.2506 90.3071L64.6765 90.4293L64.0681 90.7348C61.5735 92.1401 53.4815 95.5007 45.207 98.6168C43.9902 99.0445 42.8342 99.5333 42.5908 99.5944C42.3474 99.7166 42.1649 99.7166 42.1649 99.7166C42.1649 99.7166 42.4691 99.0445 42.895 98.2502C45.207 93.9121 47.519 88.5963 48.7359 84.9302C48.9792 84.5025 49.1009 84.197 49.1009 84.197ZM46.1805 85.1746C46.1805 85.1746 46.0588 85.6023 45.8763 86.03C44.2336 89.9405 42.1649 94.2176 39.427 99.0445C38.7578 100.267 38.1494 101.244 38.1494 101.244C38.1494 101.244 37.6018 100.939 36.9325 100.511C32.9778 98.0669 29.5098 95.1341 27.2586 92.2012L26.9544 91.7735L28.658 91.2847C34.6814 89.635 39.8529 87.8631 44.9637 85.6634C45.5112 85.419 46.1197 85.1746 46.1805 85.1746ZM64.4939 91.5902C64.4939 92.0179 63.5813 95.8673 62.7904 98.6168C62.1211 100.939 61.5735 102.772 60.5392 106.01C60.1133 107.415 59.6874 108.576 59.6874 108.576C59.6874 108.576 59.5657 108.576 59.4441 108.515C53.9683 107.538 48.9792 106.132 44.3552 104.238C43.0776 103.688 41.1914 102.894 41.0698 102.772C41.0089 102.711 42.1649 102.222 43.5643 101.611C52.0213 97.8836 60.7217 93.7287 63.7638 91.8957C64.1289 91.7124 64.4331 91.5902 64.4939 91.5902ZM22.2087 93.0566C22.2696 93.1177 19.8968 96.4783 16.6113 101.122C15.4553 102.772 14.1168 104.666 13.63 105.338C13.1433 106.071 12.3523 107.171 11.9264 107.843L11.1355 109.065L10.2837 108.332C9.31023 107.538 7.60666 105.766 6.81571 104.788C5.23382 102.772 4.13866 100.694 3.71277 98.8001C3.53024 97.8836 3.53024 97.4559 3.71277 97.3948C4.01698 97.3337 8.94519 96.1728 13.5692 95.073C16.1245 94.462 19.1058 93.7898 20.201 93.4843C21.2961 93.2399 22.1479 93.0566 22.2087 93.0566ZM24.5816 93.9732L25.19 94.6453C27.8671 97.6392 30.6049 99.8388 33.8904 101.794C34.4988 102.1 34.9247 102.405 34.8639 102.466C34.7422 102.588 23.4256 106.621 18.1323 108.393C15.2119 109.432 12.7782 110.287 12.7174 110.287L12.3523 110.043L12.0481 109.798L12.5957 109.004C14.3601 106.499 16.5504 103.688 21.2961 97.9447L24.5816 93.9732ZM39.3662 104.605C39.3662 104.605 40.218 104.91 41.1915 105.277C43.6251 106.193 45.5112 106.743 48.0666 107.415C51.2304 108.21 55.7935 109.004 58.4706 109.248C58.8965 109.309 59.079 109.309 59.0182 109.371C58.8965 109.432 56.1586 110.348 54.1508 111.02C50.987 111.998 41.2523 114.931 33.282 117.191C31.8218 117.619 30.5441 117.986 30.4833 117.986C30.3007 118.047 29.6923 117.864 29.6923 117.803C29.6923 117.741 30.1182 117.191 30.6658 116.58C33.3428 113.403 35.959 109.798 38.2102 106.438C38.8186 105.338 39.3662 104.605 39.3662 104.605ZM36.0807 104.666C36.0807 104.666 34.803 106.804 32.491 110.47C31.5176 111.998 30.4224 113.77 29.9965 114.381C29.6315 114.992 29.0839 115.908 28.7797 116.458L28.2321 117.436L27.9279 117.375C27.2586 117.191 22.5738 115.542 21.357 115.053C19.8359 114.442 18.254 113.709 17.0372 113.037C15.577 112.242 13.6909 111.02 13.8734 111.02C13.9342 111.02 16.4287 110.287 19.5317 109.493C27.6237 107.293 32.126 106.01 35.1073 105.032C35.594 104.788 36.0807 104.666 36.0807 104.666ZM59.1399 110.104C59.2615 110.287 56.2194 118.658 55.1243 121.285C54.8809 121.896 54.8201 122.018 54.6375 122.018C54.3333 122.018 49.9527 121.407 47.3365 120.98C42.7125 120.247 34.9856 118.902 33.0386 118.475L32.6127 118.352L35.3506 117.741C41.3131 116.397 44.1119 115.664 47.0323 114.809C50.6828 113.709 54.2725 112.303 57.923 110.593C58.5314 110.348 59.0182 110.104 59.1399 110.104Z" fill="url(#paint0_linear_220_777)"/>
<path d="M45.3896 0.0610883C44.9637 -1.25617e-05 38.3928 2.38292 34.1339 4.09375C28.4147 6.41558 23.9732 8.67632 21.2353 10.6315C20.201 11.3648 18.9234 12.6479 18.7408 13.1367C18.68 13.32 18.6191 13.5644 18.6191 13.7477L21.1137 16.1306L27.0153 18.0247L41.0698 20.5299L57.1321 23.2794L57.3147 21.8741H57.193L55.0635 21.5686L54.6376 20.8354C52.4473 16.986 50.0136 12.1591 48.6143 8.92072C47.5191 6.41558 46.4848 3.48274 45.9372 1.40531C45.633 0.122187 45.5722 0.0610883 45.3896 0.0610883ZM45.0854 0.977602C45.1463 0.977602 45.2071 1.52751 45.268 2.13852C45.5722 4.76586 46.1806 7.27099 47.0932 9.95943C47.7625 12.0369 47.7625 11.9147 46.9715 11.6703C45.0854 11.1203 36.6284 9.65393 30.4833 8.79852C29.5099 8.67632 28.6581 8.55411 28.6581 8.49301C28.5972 8.43191 33.0995 6.04898 35.0465 5.13246C37.6019 3.97155 44.5987 1.0998 45.0854 0.977602ZM27.1979 9.34842L27.928 9.59283C31.8827 10.937 41.7391 12.8312 47.2149 13.2589C47.8233 13.32 48.3709 13.3811 48.3709 13.3811C48.3709 13.3811 47.8842 13.6866 47.2149 13.9921C44.5987 15.3363 41.6783 16.9249 39.6705 18.208C39.0621 18.5747 38.5145 18.8802 38.4536 18.8802C38.3928 18.8802 37.9669 18.8191 37.6019 18.758L36.8717 18.6358L35.0465 16.8027C31.761 13.6255 29.2057 11.1814 28.2322 10.2038L27.1979 9.34842ZM26.4678 9.89833L29.084 13.1978C30.4833 15.0308 31.9435 16.7416 32.2478 17.1693C32.552 17.5359 32.7953 17.9025 32.7953 17.9025C32.7345 17.9636 29.0231 17.2304 27.0762 16.8027C25.0684 16.3139 24.2166 16.1306 22.9998 15.7029L21.9655 15.3974V15.153C21.9655 13.931 23.5473 12.0369 26.2244 10.1427L26.4678 9.89833ZM48.6751 14.3587C48.7359 14.3587 48.8576 14.542 49.0401 15.0308C49.6486 16.4361 51.6564 20.1633 52.1431 20.8965C52.2648 21.1409 52.569 21.1409 49.9528 20.7132C43.6861 19.6745 41.6783 19.369 41.6783 19.3079C41.6783 19.3079 41.8608 19.1857 42.1042 19.0024C44.0511 17.9025 45.998 16.5583 47.7625 15.0919C48.1884 14.7253 48.5534 14.4198 48.6751 14.3587Z" fill="url(#paint1_linear_220_777)"/>
<path d="M18.8626 12.8312C18.8626 12.8312 18.4367 13.5033 18.8626 14.4809C19.106 15.0919 19.8361 15.8251 20.627 16.5583C20.627 16.5583 28.9015 24.6237 29.875 25.7846C34.4382 31.1003 36.4459 36.2939 36.6285 43.4427C36.7502 48.0864 35.8984 52.119 33.7081 56.8238C29.875 65.2557 21.7222 74.6042 9.18872 84.9302L11.014 84.3192C12.17 83.4027 13.8127 82.4862 17.5849 80.4088C26.3462 75.5818 36.1417 71.1825 48.1885 66.6611C65.5284 60.1233 94.0633 52.4246 110.308 49.9194L112.012 49.675L111.768 49.2473C110.308 46.9255 109.274 45.5201 108.057 43.9926C104.528 39.5323 100.208 35.9884 94.9151 32.9945C87.6749 28.9007 78.2444 25.7235 66.3194 23.3405C64.0682 22.9128 59.14 22.0574 55.1244 21.4464C46.6066 20.1022 41.1308 19.1857 35.1074 18.147C32.9171 17.7804 29.6925 17.2304 27.563 16.7416C26.4679 16.4972 24.3384 16.0084 22.6348 15.3974C21.1746 14.9697 19.2885 14.4198 18.8626 12.8312ZM23.6691 17.5359C23.6691 17.5359 23.9733 17.6581 24.3992 17.7803C25.1293 18.0248 26.042 18.3303 27.0763 18.5747C27.8672 18.8191 28.719 19.0024 29.51 19.2468C30.6051 19.5523 31.5786 19.7967 31.5786 19.7967C31.7003 19.9189 33.5864 25.9679 34.1948 28.2286C34.4382 29.084 34.6207 29.8783 34.6207 29.8783C34.6207 29.8783 34.3773 29.5728 34.1339 29.1451C31.9436 25.2958 28.5365 21.4464 24.5818 18.2692C24.0342 17.8415 23.6691 17.5359 23.6691 17.5359ZM32.7954 20.0411C32.9171 20.0411 33.2822 20.1022 33.7689 20.2244C36.9327 20.9576 42.591 21.9963 46.1807 22.6073C46.7891 22.7295 47.2758 22.7906 47.2758 22.8517C47.2758 22.9128 47.0325 23.035 46.7891 23.1572C46.1807 23.4627 43.6861 24.9292 42.8952 25.4791C40.8266 26.8844 39.0013 28.3508 37.6628 29.695L36.6893 30.6726C36.6893 30.6726 36.5676 30.3671 36.5068 29.9394C35.8375 27.3732 34.4382 23.5238 33.1605 20.8354C32.9171 20.4688 32.7346 20.0411 32.7954 20.0411C32.7346 20.0411 32.7346 20.0411 32.7954 20.0411ZM48.7969 23.0961C48.9186 23.1572 49.1011 23.7682 49.4661 25.1736C50.1354 27.862 50.4396 30.917 50.3788 33.7277C50.3179 34.522 50.3179 35.2552 50.2571 35.3163L50.1962 35.4996L49.2228 35.1941C47.215 34.5831 43.9904 33.6055 41.2525 32.8112C39.6706 32.3835 38.3929 32.0169 38.3929 31.9558C38.3929 31.8335 40.7049 29.5117 41.6784 28.6563C43.5645 27.0066 48.6752 23.035 48.7969 23.0961ZM50.0746 23.2794C50.1354 23.2183 57.7406 24.5625 61.2086 25.2347C63.764 25.7235 67.5362 26.5178 67.7796 26.64C67.9013 26.7011 67.4754 26.8844 66.2585 27.4343C61.3912 29.6339 57.7407 31.6503 54.0901 34.0332C53.1167 34.6442 52.3257 35.1941 52.3257 35.1941C52.3257 35.1941 52.2649 34.6442 52.2649 34.0332C52.2649 30.4893 51.5348 26.9455 50.2571 23.8904C50.1962 23.5849 50.0746 23.3405 50.0746 23.2794ZM69.7874 27.1899C69.8482 27.251 69.6048 28.7785 69.3615 29.6339C68.6922 32.3835 66.867 36.5383 64.6766 40.3877C64.3116 41.0598 63.9465 41.6097 63.8857 41.6708C63.8248 41.6708 63.3381 41.4264 62.7905 41.0598C60.6611 39.7767 58.1665 38.6158 55.5503 37.5159C54.8202 37.2104 54.151 36.966 54.151 36.9049C54.0293 36.7827 59.9918 32.8112 63.1556 30.917C65.6501 29.3895 69.7265 27.1288 69.7874 27.1899ZM71.1867 27.4343C71.3693 27.4343 74.7156 28.3508 76.48 28.9007C80.8606 30.1838 85.8497 32.0169 89.0743 33.5444L90.4128 34.1554L89.4393 34.3998C81.469 36.2328 74.6547 38.3714 68.0838 41.0598C67.5362 41.3042 67.0495 41.4875 67.0495 41.4875C66.9886 41.4875 67.1712 41.0598 67.4145 40.5099C69.4223 36.2939 70.7 31.8946 71.0042 28.1064C71.1259 27.7398 71.1867 27.4343 71.1867 27.4343ZM37.6019 35.1941C37.6628 35.133 40.2182 35.744 41.6175 36.1717C43.747 36.7827 48.1885 38.2491 48.1885 38.3713C48.1885 38.3713 47.7017 38.7991 47.0933 39.349C44.6596 41.3653 42.3476 43.5038 39.5489 46.2534C38.6971 47.0477 38.0278 47.7198 37.967 47.7198C37.9062 47.7198 37.9062 47.5976 37.9062 47.4754C38.3321 44.3592 38.2104 40.3266 37.6628 36.2328C37.6628 35.6218 37.6019 35.1941 37.6019 35.1941ZM91.7513 35.2552C91.8122 35.3163 90.5345 37.2104 89.8044 38.3102C88.7092 39.8989 87.0665 42.0374 83.3551 46.6811C81.4082 49.1251 79.2179 51.9357 78.4878 52.8523C77.7577 53.7688 77.1493 54.5631 77.0884 54.5631C77.0884 54.5631 76.845 54.2576 76.5408 53.8299C74.4722 50.7137 71.9777 47.9642 69.0573 45.5201C68.5097 45.0313 67.9013 44.5425 67.6579 44.4203C67.4754 44.2981 67.2928 44.1148 67.2928 44.1148C67.2928 44.0537 70.4566 42.7095 72.8295 41.7319C77.0276 40.0211 82.7467 37.9436 87.0057 36.6605C89.3176 35.8662 91.7513 35.1941 91.7513 35.2552ZM93.2115 35.6218C93.2724 35.6218 93.7591 35.8051 94.2459 36.1717C98.7482 38.738 103.19 42.0985 106.658 45.5201C107.631 46.4978 110.065 49.0029 110.004 49.064C110.004 49.064 109.152 49.1251 108.179 49.1862C100.391 49.7972 90.4128 51.4469 80.7998 53.7688C80.1305 53.891 79.5829 54.0743 79.5221 54.0743C79.4613 54.0743 80.1914 53.3411 81.104 52.4857C86.7623 47.0477 89.3177 43.5649 92.3598 37.4548C92.7857 36.4161 93.1507 35.6829 93.2115 35.6218C93.1507 35.6218 93.1507 35.6218 93.2115 35.6218ZM51.8998 39.8378C52.1432 39.8989 54.5769 41.0598 56.4021 41.9152C58.0449 42.7706 60.6002 44.1148 60.7219 44.1759C60.7219 44.1759 59.8701 44.6647 58.775 45.2146C55.307 46.9866 52.3257 48.6363 49.1619 50.5304C48.2493 51.0803 47.5192 51.508 47.5192 51.508C47.4583 51.508 47.4584 51.4469 47.9451 50.5304C49.5878 47.4754 50.9263 43.8093 51.7173 40.2655C51.7781 40.0211 51.839 39.8378 51.8998 39.8378ZM49.527 40.3266C49.5878 40.3877 48.9794 42.6484 48.5535 43.9315C47.8234 46.3145 46.4849 49.2473 45.268 51.508C44.9638 52.0579 44.5379 52.7912 44.2946 53.2189L43.8078 53.9521L42.7735 52.9745C41.5567 51.8135 40.5832 51.0803 39.3055 50.4082C38.8188 50.1638 38.3929 49.9194 38.3929 49.8583C38.3929 49.7361 41.5567 46.8033 43.9904 44.7258C45.7548 43.1983 49.4661 40.2655 49.527 40.3266ZM64.2507 46.3756L65.1634 46.9866C67.232 48.3308 69.6657 50.1638 71.5518 51.7524C72.5861 52.6079 74.6547 54.4409 75.0806 54.9297L75.324 55.1741L73.8029 55.6018C65.2851 57.9847 58.775 60.0622 51.1089 62.8728C50.2571 63.1783 49.527 63.4227 49.4661 63.4227C49.3445 63.4227 49.2836 63.5449 51.1697 61.773C56.0371 57.2515 60.4177 52.2412 63.6423 47.4143L64.2507 46.3756ZM60.3569 47.3532C60.4177 47.4143 57.8623 50.9581 56.3413 53.0356C54.516 55.4796 51.2914 59.5123 49.1011 62.1396C48.1885 63.2394 47.3975 64.1559 47.3367 64.1559C47.2758 64.1559 47.2758 63.9115 47.2758 63.4838C47.2758 61.2231 46.7282 58.8401 45.6939 56.7627C45.268 55.9073 45.2072 55.724 45.268 55.6018C45.6331 55.2963 50.9872 52.1801 54.4552 50.3471C56.7063 49.1251 60.296 47.2921 60.3569 47.3532ZM36.9327 53.0967C36.9935 53.0967 37.4194 53.3411 37.9062 53.5855C39.0622 54.2576 40.1573 54.9908 41.0699 55.724C41.1308 55.7851 40.644 56.1517 39.9748 56.6405C38.2104 57.9236 35.5333 59.94 34.0123 61.162C32.3695 62.4451 32.3087 62.5062 32.4912 62.2007C33.7081 60.3066 34.3165 59.2678 34.9857 57.9236C35.5333 56.7016 36.1417 55.2963 36.5676 54.0132C36.6893 53.5244 36.8718 53.0967 36.9327 53.0967ZM43.1994 58.0458C43.3211 58.0458 43.3819 58.168 43.9295 58.9623C44.9638 60.551 45.8156 62.6895 45.9981 64.4003L46.059 64.7669L43.5036 65.7445C38.9405 67.5165 34.7424 69.2884 31.9436 70.5715C31.1527 70.9381 29.7533 71.6102 28.8407 72.0379C27.9281 72.5267 27.198 72.8323 27.198 72.8323C27.198 72.8323 27.7455 72.4045 28.4756 71.8546C34.0123 67.822 38.8188 63.3616 42.4085 58.9623C42.7735 58.4735 43.1386 58.0458 43.1994 58.0458ZM40.3398 58.7179C40.4007 58.779 38.2712 61.2231 36.8718 62.6895C33.2822 66.3556 29.7533 69.2273 25.3727 72.0379C24.8251 72.4045 24.3384 72.71 24.2775 72.7711C24.1559 72.8322 24.3384 72.6489 26.2245 70.5715C27.4413 69.2273 28.354 68.1275 29.4491 66.7833C30.1792 65.8667 30.3009 65.7445 31.2744 65.0113C33.9514 62.9339 40.2182 58.6568 40.3398 58.7179Z" fill="url(#paint2_radial_220_777)"/>
</g>
<defs>
<linearGradient id="paint0_linear_220_777" x1="18.4927" y1="110.833" x2="27.3793" y2="105.605" gradientUnits="userSpaceOnUse">
<stop stop-color="#909CA9"/>
<stop offset="1" stop-color="#EDEDEE"/>
</linearGradient>
<linearGradient id="paint1_linear_220_777" x1="18.6913" y1="11.6929" x2="25.826" y2="11.6929" gradientUnits="userSpaceOnUse">
<stop stop-color="#939FAB"/>
<stop offset="1" stop-color="#DCDEE1"/>
</linearGradient>
<radialGradient id="paint2_radial_220_777" cx="0" cy="0" r="1" gradientUnits="userSpaceOnUse" gradientTransform="translate(54.6608 44.5098) rotate(-171.422) scale(9.19953 18.4784)">
<stop stop-color="#EE352C"/>
<stop offset="1" stop-color="#A91D22"/>
</radialGradient>
<clipPath id="clip0_220_777">
<rect width="112" height="123" fill="white"/>
</clipPath>
</defs>
</svg>
